<svg fill="none" height="24" viewBox="0 0 24 24" width="24" xmlns="http://www.w3.org/2000/svg">
  <path d="m10.3072 7.21992c.6421-1.60068.9632-2.40103 1.4847-2.51195.1372-.02917.2789-.02917.4161 0 .5215.11092.8426.91127 1.4847 2.51195.3651.91028.5477 1.36543.8893 1.67499.0958.08683.1998.16416.3106.23091.3948.23798.8877.28212 1.8735.37041 1.6687.14945 2.5031.22417 2.7579.69987.0528.0986.0887.2053.1062.3157.0844.533-.529 1.091-1.7558 2.2072l-.3406.3099c-.5736.5218-.8603.7827-1.0262 1.1083-.0995.1953-.1662.4057-.1975.6226-.0521.3617.0319.7402.1998 1.4972l.06.2705c.3012 1.3575.4518 2.0363.2638 2.3699-.1688.2997-.4799.4916-.8235.508-.3825.0182-.9215-.421-1.9995-1.2994-.7102-.5787-1.0653-.868-1.4595-.9811-.3602-.1033-.7423-.1033-1.1025 0-.3942.1131-.7493.4024-1.45953.9811-1.07798.8784-1.61696 1.3176-1.99949 1.2994-.34359-.0164-.65464-.2083-.82351-.508-.18799-.3336-.03739-1.0124.2638-2.3699l.06001-.2705c.16796-.757.25193-1.1355.19982-1.4972-.03126-.2169-.09798-.4273-.19748-.6226-.16587-.3256-.45264-.5865-1.02619-1.1083l-.34067-.3099c-1.22679-1.1162-1.84019-1.6742-1.75571-2.2072.01749-.1104.05337-.2171.10614-.3157.2548-.4757 1.08918-.55042 2.75795-.69987.98578-.08829 1.47867-.13243 1.87351-.37041.11075-.06675.21476-.14408.31058-.23091.34161-.30956.52418-.76471.88927-1.67499z" fill="#FAEF29" stroke="#FAEF29" stroke-width="2"/>
</svg>
